<svg width="311" height="311" xmlns="http://www.w3.org/2000/svg" xmlns:xlink="http://www.w3.org/1999/xlink" overflow="hidden"><defs><clipPath id="clip0"><rect x="0" y="0" width="311" height="311"/></clipPath></defs><g clip-path="url(#clip0)"><path d="M67.0594 160.359 65.4396 161.007C62.524 162.303 60.5802 164.247 60.9042 166.515L67.0594 187.248 99.1312 257.223C100.751 260.462 104.639 261.758 107.878 260.139 110.794 258.843 112.09 255.279 111.118 252.364L84.2292 179.797 73.8625 160.683C71.9187 159.387 69.3271 159.064 67.0594 160.359Z"/><path d="M121.16 158.092 105.286 164.571C99.1312 166.839 93.3 169.106 87.4688 171.698L90.0604 176.557 90.3844 176.881 90.3844 177.205 92.6521 183.36C98.1594 180.769 103.667 178.825 109.498 176.557L109.498 176.557 109.822 176.233C112.09 175.585 114.033 174.614 116.301 173.966L151.289 205.066C153.88 207.333 157.444 207.333 160.035 205.066L195.023 173.966C197.291 174.614 199.234 175.585 201.502 176.233L202.15 176.557 202.15 176.557C215.756 181.417 228.715 186.924 239.405 195.671 240.701 196.643 241.673 197.939 242.645 199.234 248.152 200.206 253.335 201.502 258.519 203.77 256.899 196.643 253.011 190.164 247.18 185.628 235.194 175.585 220.94 169.43 205.714 164.247L189.84 157.768C188.544 157.12 187.896 156.148 187.896 154.852L187.896 147.077C200.206 137.358 207.333 122.456 207.333 106.582L207.333 104.639 208.629 105.286C210.249 105.934 212.193 104.963 212.841 103.343L213.489 101.075C225.151 106.906 228.715 103.343 230.334 97.1875 232.602 88.7646 201.826 63.1719 175.909 48.5938 174.938 47.9458 173.642 47.2979 172.67 46.974 174.614 45.6781 176.881 44.7062 179.149 43.7344 180.769 43.0865 181.741 41.4667 181.093 39.5229 180.445 37.9031 178.825 36.9312 177.205 37.5792 172.994 38.875 169.106 41.1427 165.867 44.0583 145.781 37.2552 128.611 44.0583 115.005 43.4104 101.399 42.7625 95.5677 43.0865 92.0042 49.5656 87.4688 57.6646 93.624 69.975 102.047 72.8906L101.399 75.1583C101.075 76.7781 102.047 78.7219 103.667 79.0458L103.667 79.0458 103.667 79.3698 90.7083 94.2719C94.9198 94.9198 99.4552 94.9198 103.667 94.2719L103.667 106.906C103.667 122.456 110.794 137.358 123.104 147.401L123.104 155.5C123.104 156.472 122.456 157.768 121.16 158.092ZM155.5 192.107 128.935 168.458C133.471 165.543 136.062 160.359 136.062 155.176L136.062 154.852C148.373 160.035 162.627 160.035 174.938 154.852L174.938 155.176C174.938 160.359 177.529 165.543 182.065 168.458L155.5 192.107ZM116.625 106.906 116.625 91.3562C123.428 89.4125 129.907 86.4969 136.386 82.9333L129.583 93.9479C141.246 93.624 152.26 90.3844 162.303 84.2292 172.67 87.1448 182.712 91.3562 192.107 96.5396L194.375 97.8354 194.375 106.906C194.375 128.287 176.881 145.781 155.5 145.781 134.119 145.781 116.625 128.287 116.625 106.906L116.625 106.906Z"/><path d="M64.7917 260.139 64.7917 210.573C64.7917 207.657 65.4396 205.066 66.7354 202.474L60.9042 189.516 60.5802 189.192 60.5802 188.868C55.0729 195.023 52.1573 202.474 51.8333 210.573L51.8333 267.59 54.749 269.533C70.6229 280.224 113.709 285.407 156.472 285.407 169.43 285.407 182.712 284.759 194.699 283.787 188.22 280.872 182.065 276.66 176.881 271.801 133.471 273.421 83.2573 269.533 64.7917 260.139Z"/><path d="M63.1719 153.556C71.5948 149.993 75.4823 140.598 71.9187 132.175 69.3271 126.02 63.4958 125.048 58.6365 122.132 53.1292 119.217 49.5656 113.385 50.2135 106.906 36.9312 114.681 36.9312 132.499 41.7906 144.485 45.0302 153.232 54.749 157.12 63.1719 153.556 63.1719 153.556 63.1719 153.556 63.1719 153.556Z"/><path d="M228.067 205.066C195.995 205.066 200.854 217.7 204.094 220.616L211.221 227.743C215.756 232.278 210.249 237.785 205.066 235.518L187.248 227.743C174.938 222.235 171.374 237.461 171.374 244.912 171.374 266.942 196.643 284.759 228.067 284.759 259.491 284.759 284.759 266.942 284.759 244.912 284.759 222.883 259.167 205.066 228.067 205.066ZM263.378 224.827C267.266 224.827 270.505 227.095 270.505 229.686 270.505 232.278 267.266 234.546 263.378 234.546 259.491 234.546 256.251 232.278 256.251 229.686 256.251 227.095 259.491 224.827 263.378 224.827ZM207.981 274.393C204.094 274.393 200.854 272.125 200.854 269.533 200.854 266.942 204.094 264.674 207.981 264.674 211.869 264.674 215.108 266.942 215.108 269.533 215.108 272.125 212.193 274.393 207.981 274.393ZM228.067 277.308C224.179 277.308 220.94 275.041 220.94 272.449 220.94 269.857 224.179 267.59 228.067 267.59 231.954 267.59 235.194 269.857 235.194 272.449 235.194 275.041 231.954 277.308 228.067 277.308ZM247.828 273.097C243.941 273.097 240.701 270.829 240.701 268.238 240.701 265.646 243.941 263.378 247.828 263.378 251.716 263.378 254.955 265.646 254.955 268.238 254.955 270.829 251.716 273.097 247.828 273.097ZM247.828 224.827C243.941 224.827 240.701 222.559 240.701 219.968 240.701 217.376 243.941 215.108 247.828 215.108 251.716 215.108 254.955 217.376 254.955 219.968 254.955 222.559 251.716 224.827 247.828 224.827ZM263.378 264.35C259.491 264.35 256.251 262.082 256.251 259.491 256.251 256.899 259.491 254.631 263.378 254.631 267.266 254.631 270.505 256.899 270.505 259.491 270.505 262.082 267.266 264.35 263.378 264.35ZM270.505 248.8C266.618 248.8 263.378 246.532 263.378 243.941 263.378 241.349 266.618 239.081 270.505 239.081 274.393 239.081 277.632 241.349 277.632 243.941 277.632 246.532 274.393 248.8 270.505 248.8Z"/></g></svg>